<svg width="155" height="155" viewBox="0 0 155 155" fill="none" xmlns="http://www.w3.org/2000/svg">
<g clip-path="url(#clip0_5113_481)">
<mask id="mask0_5113_481" style="mask-type:luminance" maskUnits="userSpaceOnUse" x="0" y="0" width="155" height="155">
<path d="M155 0H0V155H155V0Z" fill="white"/>
</mask>
<g mask="url(#mask0_5113_481)">
<mask id="mask1_5113_481" style="mask-type:luminance" maskUnits="userSpaceOnUse" x="0" y="0" width="155" height="155">
<path d="M155 0H0V155H155V0Z" fill="white"/>
</mask>
<g mask="url(#mask1_5113_481)">
<path d="M77.1094 153.441C119.083 153.441 153.109 119.415 153.109 77.4414C153.109 35.4678 119.083 1.44141 77.1094 1.44141C35.1357 1.44141 1.10938 35.4678 1.10938 77.4414C1.10938 119.415 35.1357 153.441 77.1094 153.441Z" fill="#004BB0" stroke="white" stroke-width="2"/>
<path d="M82.6473 21.7438C79.624 21.471 77.8888 19.2604 78.1438 16.4343C78.3988 13.6081 80.5018 11.7439 83.5251 12.0167C86.2198 12.2599 87.8388 13.8504 87.8928 16.0419L85.6319 15.8378C85.489 14.7781 84.6808 14.0425 83.3663 13.9239C81.6312 13.7673 80.5278 14.8339 80.3653 16.6347C80.2028 18.4356 81.0974 19.6825 82.8325 19.839C84.147 19.9577 85.0738 19.3787 85.4041 18.3616L87.665 18.5657C87.2196 20.712 85.342 21.987 82.6473 21.7438Z" fill="white"/>
<path d="M91.0996 23.1521C88.9792 22.6012 88.0313 20.8958 88.5192 19.018C89.0071 17.1403 90.6652 16.112 92.7856 16.6629C94.8934 17.2105 95.8412 18.9159 95.3533 20.7937C94.8654 22.6714 93.2074 23.6997 91.0996 23.1521ZM91.5278 21.5043C92.4475 21.7432 93.1694 21.2217 93.4117 20.2892C93.6539 19.3567 93.2772 18.5497 92.3575 18.3108C91.425 18.0685 90.7159 18.5933 90.4736 19.5258C90.2314 20.4583 90.5953 21.262 91.5278 21.5043Z" fill="white"/>
<path d="M98.0586 25.2519L96.2002 24.462L98.6887 18.6074L100.547 19.3973L100.186 20.2476C100.805 19.7362 101.622 19.668 102.509 20.0448C103.93 20.6489 104.306 21.7552 103.63 23.3464L102.091 26.966L100.221 26.1709L101.501 23.1586C101.919 22.1747 101.831 21.6066 101.078 21.2865C100.337 20.9715 99.7417 21.2922 99.3597 22.191L98.0586 25.2519Z" fill="white"/>
<path d="M107.274 28.1179C107.469 28.2287 107.728 28.3607 107.902 28.429L107.107 29.829C106.828 29.7315 106.389 29.5428 105.884 29.2559C105.058 28.7866 104.026 27.9576 105.075 26.11L106.327 23.9066L105.455 23.4112L106.244 22.0226L107.116 22.518L108.048 20.877L109.804 21.8744L108.872 23.5154L110.122 24.226L109.334 25.6145L108.083 24.904L107.04 26.7401C106.577 27.5549 106.838 27.8702 107.274 28.1179Z" fill="white"/>
<path d="M109.601 31.7913C108.062 30.6768 108.018 28.8692 109.141 27.319C110.255 25.7796 112.058 25.2924 113.555 26.376C114.303 26.9178 114.636 27.6962 114.534 28.4213L115.068 27.6837L116.693 28.8601L112.963 34.013L111.338 32.8365L111.864 32.1096C111.215 32.4215 110.318 32.3099 109.601 31.7913ZM111.055 30.7742C111.867 31.3624 112.725 31.0549 113.267 30.3065C113.801 29.5689 113.825 28.6577 113.013 28.0695C112.254 27.5199 111.373 27.746 110.808 28.5264C110.243 29.3068 110.296 30.2247 111.055 30.7742Z" fill="white"/>
<path d="M115.857 36.9857C114.344 35.5311 114.336 33.6551 115.726 32.2091C117.117 30.763 118.992 30.6983 120.504 32.1529C121.874 33.4702 122.073 35.0531 121.09 36.3045L119.634 34.9049C119.941 34.3761 119.857 33.911 119.325 33.3988C118.697 32.795 117.914 32.8477 117.182 33.6087C116.45 34.3698 116.428 35.1543 117.056 35.7581C117.589 36.2704 118.047 36.3454 118.536 36.0465L119.992 37.4461C118.807 38.4494 117.227 38.303 115.857 36.9857Z" fill="white"/>
<path d="M122.741 41.9834C122.884 42.1558 123.08 42.3704 123.219 42.4954L121.982 43.5262C121.755 43.337 121.411 43.0058 121.039 42.5596C120.431 41.8296 119.756 40.6906 121.389 39.3303L123.336 37.7081L122.693 36.9375L123.92 35.9152L124.562 36.6857L126.012 35.4775L127.305 37.0288L125.855 38.237L126.776 39.3422L125.549 40.3646L124.628 39.2594L123.006 40.6113C122.286 41.2111 122.42 41.5981 122.741 41.9834Z" fill="white"/>
<path d="M126.128 50.4808C125.052 48.4816 125.434 46.6279 127.328 45.6087L132.71 42.7139L133.717 44.5852L128.451 47.4175C127.521 47.9177 127.298 48.757 127.755 49.6055C128.218 50.4656 129.034 50.7305 129.964 50.2304L135.23 47.398L136.243 49.281L130.861 52.1758C128.966 53.195 127.203 52.48 126.128 50.4808Z" fill="white"/>
<path d="M129.93 58.831C129.334 57.1238 129.736 55.7116 130.907 55.3029L131.568 57.197C131.157 57.3405 131.009 57.8392 131.214 58.4249C131.357 58.8362 131.656 59.0532 132.005 58.9315C132.28 58.8358 132.394 58.6422 132.34 58.0878L132.212 56.7205C132.114 55.6784 132.534 54.917 133.443 54.5996C134.577 54.2039 135.682 54.9649 136.221 56.5101C136.812 58.2048 136.495 59.4197 135.299 59.8371L134.642 57.9555C135.066 57.8076 135.182 57.4178 135.003 56.9069C134.86 56.4957 134.565 56.2911 134.278 56.3911C134.004 56.4868 133.89 56.7221 133.935 57.2516L134.03 58.6444C134.111 59.6784 133.738 60.4517 132.828 60.7691C131.582 61.2039 130.486 60.4261 129.93 58.831Z" fill="white"/>
<path d="M142.802 69.3126L140.413 69.3786L141.41 71.665L139.832 72.0979L139.373 69.9498L137.676 71.6384L136.702 70.2947L138.564 69.0229L136.455 68.4236L137.004 66.8148L139.096 67.9628L138.966 65.7822L140.595 65.8086L140.252 68.2283L142.569 67.6394L142.802 69.3126Z" fill="white"/>
<path d="M132.753 82.5662C133.003 79.541 135.201 77.7895 138.029 78.0238C140.857 78.2581 142.736 80.3473 142.486 83.3725C142.262 86.0689 140.684 87.6995 138.493 87.7696L138.68 85.5073C139.739 85.3566 140.469 84.543 140.578 83.2277C140.721 81.4915 139.647 80.3959 137.845 80.2467C136.043 80.0974 134.802 81.0011 134.659 82.7373C134.55 84.0526 135.135 84.9752 136.155 85.2981L135.967 87.5604C133.818 87.1307 132.529 85.2626 132.753 82.5662Z" fill="white"/>
<path d="M131.408 91.0268C131.943 88.9022 133.641 87.9417 135.523 88.4155C137.404 88.8894 138.445 90.5397 137.91 92.6643C137.378 94.776 135.679 95.7366 133.798 95.2627C131.917 94.7889 130.876 93.1385 131.408 91.0268ZM133.059 91.4426C132.827 92.3641 133.354 93.082 134.288 93.3173C135.222 93.5527 136.026 93.1699 136.259 92.2484C136.494 91.3142 135.964 90.609 135.029 90.3737C134.095 90.1384 133.294 90.5083 133.059 91.4426Z" fill="white"/>
<path d="M129.36 98.0068L130.136 96.1426L136.009 98.5879L135.232 100.452L134.38 100.096C134.895 100.712 134.97 101.529 134.599 102.418C134.006 103.844 132.902 104.228 131.306 103.563L127.675 102.051L128.457 100.175L131.478 101.433C132.465 101.844 133.033 101.752 133.347 100.996C133.657 100.253 133.332 99.6606 132.43 99.2852L129.36 98.0068Z" fill="white"/>
<path d="M126.56 107.24C126.451 107.436 126.321 107.696 126.254 107.87L124.848 107.085C124.944 106.806 125.129 106.366 125.412 105.858C125.875 105.029 126.697 103.991 128.552 105.027L130.765 106.262L131.254 105.386L132.648 106.165L132.159 107.041L133.807 107.961L132.822 109.724L131.175 108.804L130.473 110.06L129.079 109.281L129.78 108.025L127.936 106.996C127.118 106.539 126.805 106.802 126.56 107.24Z" fill="white"/>
<path d="M122.906 109.594C124.009 108.046 125.816 107.989 127.375 109.1C128.922 110.203 129.423 112.002 128.35 113.507C127.814 114.259 127.038 114.598 126.312 114.502L127.054 115.03L125.889 116.664L120.709 112.971L121.873 111.338L122.604 111.859C122.288 111.212 122.393 110.314 122.906 109.594ZM123.934 111.04C123.351 111.856 123.665 112.712 124.418 113.249C125.159 113.777 126.071 113.795 126.653 112.978C127.197 112.215 126.964 111.336 126.18 110.777C125.395 110.217 124.478 110.277 123.934 111.04Z" fill="white"/>
<path d="M117.756 115.889C119.199 114.366 121.075 114.344 122.532 115.723C123.988 117.103 124.066 118.978 122.623 120.501C121.315 121.88 119.734 122.091 118.475 121.117L119.864 119.651C120.395 119.954 120.86 119.867 121.368 119.33C121.967 118.698 121.909 117.915 121.143 117.189C120.376 116.463 119.591 116.447 118.992 117.079C118.484 117.615 118.412 118.075 118.715 118.562L117.326 120.027C116.314 118.85 116.449 117.269 117.756 115.889Z" fill="white"/>
<path d="M112.809 122.808C112.638 122.953 112.424 123.15 112.3 123.29L111.261 122.06C111.448 121.832 111.777 121.485 112.22 121.11C112.946 120.497 114.08 119.814 115.452 121.436L117.088 123.371L117.854 122.723L118.886 123.943L118.12 124.591L119.339 126.032L117.797 127.336L116.578 125.895L115.48 126.824L114.448 125.604L115.547 124.675L114.183 123.063C113.578 122.348 113.192 122.484 112.809 122.808Z" fill="white"/>
<path d="M104.338 126.257C106.329 125.167 108.186 125.535 109.219 127.422L112.153 132.782L110.289 133.803L107.418 128.558C106.911 127.632 106.07 127.416 105.225 127.878C104.369 128.347 104.11 129.166 104.617 130.092L107.488 135.336L105.612 136.363L102.678 131.003C101.645 129.116 102.347 127.348 104.338 126.257Z" fill="white"/>
<path d="M96.0125 130.121C97.7153 129.513 99.1305 129.904 99.5478 131.073L97.6586 131.748C97.5121 131.337 97.0123 131.194 96.4281 131.402C96.0179 131.549 95.8031 131.85 95.9274 132.198C96.0251 132.471 96.2196 132.584 96.7736 132.526L98.1399 132.389C99.1813 132.283 99.9457 132.697 100.271 133.604C100.675 134.735 99.9211 135.845 98.3799 136.395C96.6896 136.999 95.4724 136.691 95.0461 135.498L96.9229 134.827C97.0739 135.25 97.4645 135.363 97.9741 135.181C98.3842 135.034 98.5866 134.738 98.4845 134.452C98.3868 134.178 98.1507 134.067 97.6215 134.115L96.2295 134.22C95.1961 134.309 94.4201 133.942 94.096 133.034C93.652 131.791 94.4216 130.69 96.0125 130.121Z" fill="white"/>
<path d="M85.6262 143.069L85.5427 140.681L83.2637 141.695L82.8193 140.12L84.964 139.645L83.263 137.96L84.5995 136.977L85.8849 138.83L86.4688 136.716L88.0815 137.254L86.9489 139.354L89.1284 139.208L89.1139 140.837L86.6919 140.512L87.2977 142.824L85.6262 143.069Z" fill="white"/>
<path d="M72.3038 133.118C75.3307 133.347 77.0983 135.531 76.8848 138.361C76.6713 141.191 74.5959 143.085 71.5689 142.857C68.871 142.654 67.2288 141.087 67.1426 138.897L69.4063 139.067C69.5647 140.125 70.3837 140.849 71.6998 140.948C73.437 141.079 74.5246 139.996 74.6606 138.193C74.7967 136.39 73.8838 135.157 72.1466 135.025C70.8305 134.926 69.9123 135.519 69.5969 136.54L67.3333 136.37C67.7472 134.217 69.6058 132.915 72.3038 133.118Z" fill="white"/>
<path d="M63.8356 131.838C65.9641 132.357 66.9372 134.048 66.4775 135.933C66.0177 137.817 64.3753 138.87 62.2468 138.351C60.1311 137.835 59.1579 136.144 59.6177 134.259C60.0774 132.374 61.72 131.321 63.8356 131.838ZM63.4322 133.492C62.509 133.266 61.795 133.799 61.5666 134.735C61.3383 135.671 61.727 136.472 62.6502 136.697C63.5863 136.925 64.2873 136.39 64.5157 135.454C64.744 134.518 64.3682 133.72 63.4322 133.492Z" fill="white"/>
<path d="M56.8339 129.838L58.7038 130.601L56.3017 136.492L54.4319 135.729L54.7807 134.874C54.1694 135.394 53.3527 135.474 52.4606 135.11C51.0307 134.527 50.6386 133.427 51.2914 131.826L52.7765 128.184L54.6586 128.951L53.4226 131.982C53.019 132.972 53.1157 133.539 53.8734 133.848C54.6189 134.152 55.2093 133.823 55.5781 132.918L56.8339 129.838Z" fill="white"/>
<path d="M47.5836 127.11C47.3869 127.002 47.126 126.874 46.9513 126.808L47.7259 125.396C48.0058 125.49 48.4478 125.672 48.9569 125.951C49.79 126.408 50.8339 127.222 49.8117 129.085L48.5927 131.307L49.4721 131.789L48.7039 133.189L47.8245 132.707L46.9166 134.361L45.1463 133.39L46.0542 131.735L44.793 131.043L45.5612 129.643L46.8224 130.335L47.8382 128.484C48.289 127.662 48.0233 127.351 47.5836 127.11Z" fill="white"/>
<path d="M45.2031 123.471C46.7588 124.562 46.8291 126.369 45.7298 127.936C44.6381 129.491 42.8426 130.005 41.3301 128.944C40.5739 128.413 40.2299 127.639 40.3205 126.913L39.7974 127.658L38.1553 126.506L41.8096 121.299L43.4517 122.451L42.9361 123.186C43.5809 122.864 44.4793 122.963 45.2031 123.471ZM43.7649 124.509C42.9439 123.933 42.0904 124.253 41.5597 125.009C41.0366 125.755 41.0258 126.666 41.8468 127.242C42.6139 127.781 43.491 127.542 44.0445 126.753C44.5979 125.964 44.532 125.047 43.7649 124.509Z" fill="white"/>
<path d="M38.8704 118.367C40.4041 119.8 40.4406 121.675 39.0714 123.142C37.7022 124.608 35.8281 124.7 34.2944 123.268C32.9053 121.971 32.6832 120.391 33.6484 119.125L35.1242 120.503C34.825 121.037 34.9156 121.5 35.4558 122.005C36.0924 122.599 36.8746 122.535 37.5952 121.763C38.3159 120.992 38.3266 120.207 37.6899 119.612C37.1497 119.108 36.6897 119.04 36.2053 119.346L34.7295 117.968C35.8992 116.947 37.4813 117.07 38.8704 118.367Z" fill="white"/>
<path d="M31.915 113.472C31.7689 113.302 31.5698 113.09 31.4294 112.967L32.6511 111.918C32.8803 112.104 33.2298 112.43 33.6081 112.871C34.2271 113.592 34.9179 114.721 33.3056 116.105L31.3829 117.755L32.0362 118.517L30.8245 119.557L30.1712 118.796L28.7391 120.025L27.4238 118.493L28.8558 117.264L27.9188 116.172L29.1305 115.132L30.0676 116.223L31.6699 114.848C32.3809 114.237 32.2417 113.852 31.915 113.472Z" fill="white"/>
<path d="M28.4018 105.027C29.5066 107.01 29.1524 108.87 27.2731 109.917L21.9349 112.891L20.9007 111.034L26.1236 108.125C27.046 107.611 27.2565 106.768 26.7876 105.927C26.3123 105.073 25.4916 104.821 24.5692 105.334L19.3463 108.244L18.3057 106.376L23.6439 103.402C25.5233 102.355 27.297 103.044 28.4018 105.027Z" fill="white"/>
<path d="M24.4767 96.7295C25.0975 98.4277 24.7166 99.8457 23.5514 100.271L22.8626 98.3876C23.2716 98.238 23.4117 97.7371 23.1987 97.1545C23.0492 96.7455 22.7466 96.5329 22.3995 96.6598C22.1268 96.7594 22.0155 96.9547 22.0774 97.5083L22.2252 98.8735C22.3386 99.9141 21.9306 100.681 21.0257 101.012C19.8977 101.424 18.7824 100.68 18.2204 99.1432C17.6041 97.4573 17.9031 96.2379 19.0931 95.8028L19.7774 97.6746C19.3559 97.8287 19.2461 98.2201 19.4319 98.7284C19.5814 99.1374 19.8795 99.3376 20.1646 99.2334C20.4373 99.1337 20.5474 98.8967 20.4946 98.368L20.3794 96.9767C20.2829 95.944 20.6447 95.1653 21.5496 94.8345C22.7892 94.3813 23.8966 95.1428 24.4767 96.7295Z" fill="white"/>
<path d="M11.4512 86.4339L13.8394 86.333L12.8082 84.0615L14.3805 83.6055L14.8707 85.7467L16.543 84.0334L17.5358 85.3627L15.6928 86.6616L17.8102 87.23L17.2848 88.8467L15.1763 87.7294L15.3384 89.9078L13.7089 89.9052L14.0163 87.4808L11.7085 88.1036L11.4512 86.4339Z" fill="white"/>
<path d="M21.3072 73.0463C21.101 76.0748 18.9292 77.8584 16.0981 77.6657C13.2671 77.473 11.3569 75.4116 11.5631 72.383C11.7468 69.6837 13.3013 68.03 15.491 67.9277L15.3368 70.1926C14.2805 70.3588 13.5629 71.1831 13.4733 72.4998C13.355 74.238 14.4456 75.3176 16.2496 75.4404C18.0536 75.5631 19.2804 74.6413 19.3988 72.9031C19.4884 71.5864 18.8891 70.6725 17.865 70.3647L18.0192 68.0998C20.1748 68.4979 21.4909 70.3469 21.3072 73.0463Z" fill="white"/>
<path d="M22.5248 64.5705C22.0215 66.7028 20.3379 67.6887 18.4496 67.243C16.5614 66.7973 15.4962 65.1628 15.9994 63.0305C16.4997 60.9111 18.1833 59.9251 20.0716 60.3708C21.9598 60.8165 23.025 62.4511 22.5248 64.5705ZM20.8678 64.1794C21.0861 63.2546 20.5485 62.5447 19.6108 62.3234C18.6731 62.1021 17.8747 62.4967 17.6565 63.4215C17.4351 64.3592 17.9758 65.0564 18.9135 65.2777C19.8512 65.499 20.6465 65.1172 20.8678 64.1794Z" fill="white"/>
<path d="M24.4732 57.5476L23.7245 59.423L17.8164 57.0643L18.5651 55.1889L19.4231 55.5315C18.8982 54.924 18.8119 54.1079 19.1691 53.2131C19.7417 51.779 20.8394 51.3788 22.4451 52.0198L26.0978 53.4781L25.3442 55.3658L22.3044 54.1522C21.3115 53.7558 20.7454 53.8567 20.442 54.6166C20.1435 55.3643 20.4772 55.9523 21.3843 56.3144L24.4732 57.5476Z" fill="white"/>
<path d="M27.1333 48.2781C27.2398 48.0806 27.366 47.8187 27.4304 47.6436L28.8477 48.4077C28.7564 48.6883 28.5774 49.1316 28.3018 49.6428C27.8508 50.4792 27.0449 51.5291 25.1745 50.5207L22.944 49.3182L22.468 50.2011L21.0623 49.4432L21.5383 48.5603L19.877 47.6646L20.8353 45.8872L22.4966 46.7828L23.1793 45.5166L24.585 46.2744L23.9023 47.5407L25.761 48.5428C26.5859 48.9875 26.8953 48.7195 27.1333 48.2781Z" fill="white"/>
<path d="M30.7508 45.8731C29.6706 47.4367 27.8643 47.5203 26.2898 46.4326C24.7261 45.3523 24.1993 43.5607 25.2495 42.0405C25.7746 41.2803 26.5456 40.9307 27.2727 41.0159L26.5235 40.4983L27.6637 38.8477L32.8977 42.4636L31.7574 44.1141L31.019 43.604C31.3452 44.2464 31.2535 45.1455 30.7508 45.8731ZM29.7018 44.4425C30.272 43.6173 29.9456 42.7662 29.1855 42.2411C28.4362 41.7234 27.5247 41.7193 26.9545 42.5446C26.4219 43.3156 26.6674 44.191 27.4601 44.7386C28.2528 45.2862 29.1692 45.2135 29.7018 44.4425Z" fill="white"/>
<path d="M35.809 39.503C34.388 41.0472 32.5126 41.0971 31.0364 39.7387C29.5602 38.3802 29.4544 36.5072 30.8754 34.963C32.1623 33.5645 33.7405 33.3308 35.0132 34.2867L33.6458 35.7726C33.1104 35.4773 32.6473 35.5712 32.1469 36.1151C31.557 36.7561 31.6268 37.5378 32.4038 38.2527C33.1807 38.9677 33.9656 38.9725 34.5554 38.3315C35.0559 37.7876 35.1208 37.3272 34.8112 36.845L36.1786 35.3591C37.2076 36.5213 37.0959 38.1045 35.809 39.503Z" fill="white"/>
<path d="M40.6544 32.5109C40.8235 32.3635 41.0338 32.1629 41.1558 32.0216L42.2135 33.2356C42.0293 33.4661 41.7057 33.8181 41.2678 34.1995C40.5514 34.8238 39.4275 35.5229 38.0316 33.9208L36.367 32.0102L35.6107 32.6691L34.5617 31.465L35.3179 30.8061L34.0781 29.3831L35.6007 28.0566L36.8405 29.4796L37.9251 28.5346L38.9742 29.7386L37.8895 30.6837L39.2767 32.2758C39.8923 32.9824 40.2762 32.8404 40.6544 32.5109Z" fill="white"/>
<path d="M49.0738 28.9375C47.0989 30.0569 45.2372 29.7164 44.1763 27.8449L41.1631 22.5287L43.0117 21.4809L45.9599 26.6823C46.4805 27.6008 47.3245 27.8051 48.1627 27.33C49.0124 26.8484 49.2592 26.0258 48.7385 25.1073L45.7903 19.9059L47.6504 18.8516L50.6637 24.1678C51.7245 26.0394 51.0487 27.8181 49.0738 28.9375Z" fill="white"/>
<path d="M57.3432 24.9496C55.6496 25.5829 54.2288 25.2125 53.7942 24.0504L55.6733 23.3477C55.8258 23.7557 56.3277 23.892 56.9087 23.6748C57.3167 23.5222 57.5271 23.2181 57.3976 22.8719C57.2959 22.6 57.0998 22.4901 56.5467 22.5561L55.1826 22.7139C54.1429 22.835 53.3724 22.4327 53.035 21.5303C52.6142 20.4054 53.3505 19.2845 54.8834 18.7113C56.5647 18.0825 57.7863 18.3725 58.2301 19.5592L56.3634 20.2573C56.2063 19.837 55.814 19.7301 55.3071 19.9196C54.8992 20.0722 54.7012 20.3717 54.8075 20.656C54.9092 20.928 55.147 21.0363 55.6754 20.9796L57.0658 20.8542C58.0977 20.7501 58.879 21.1061 59.2165 22.0085C59.6788 23.2447 58.9256 24.3578 57.3432 24.9496Z" fill="white"/>
<path d="M67.5445 11.8467L67.6629 14.2341L69.9268 13.1864L70.3943 14.7553L68.2567 15.2612L69.9822 16.9209L68.6602 17.9233L67.3478 16.0899L66.795 18.2114L65.1745 17.6978L66.2763 15.5812L64.0991 15.7593L64.0898 14.1297L66.5164 14.4194L65.8768 12.1163L67.5445 11.8467Z" fill="white"/>
<path d="M77.1094 117.441C99.2008 117.441 117.109 99.5328 117.109 77.4414C117.109 55.35 99.2008 37.4414 77.1094 37.4414C55.018 37.4414 37.1094 55.35 37.1094 77.4414C37.1094 99.5328 55.018 117.441 77.1094 117.441Z" fill="white"/>
<path d="M77.1094 57.4414C73.1538 57.4414 69.287 58.6144 65.998 60.812C62.709 63.0096 60.1455 66.1332 58.6318 69.7877C57.118 73.4423 56.722 77.4636 57.4937 81.3432C58.2654 85.2228 60.1702 88.7865 62.9672 91.5835C65.7643 94.3806 69.328 96.2854 73.2076 97.0571C77.0872 97.8288 81.1085 97.4327 84.763 95.919C88.4176 94.4052 91.5411 91.8418 93.7388 88.5528C95.9364 85.2638 97.1094 81.397 97.1094 77.4414C97.1034 72.1389 94.9943 67.0553 91.2449 63.3059C87.4955 59.5565 82.4119 57.4474 77.1094 57.4414ZM77.1094 94.5358C73.7284 94.5358 70.4234 93.5332 67.6122 91.6549C64.8011 89.7765 62.6101 87.1067 61.3162 83.9831C60.0224 80.8596 59.6839 77.4224 60.3435 74.1065C61.003 70.7905 62.6311 67.7445 65.0218 65.3538C67.4125 62.9631 70.4584 61.3351 73.7744 60.6755C77.0904 60.0159 80.5275 60.3544 83.6511 61.6482C86.7747 62.9421 89.4445 65.1331 91.3228 67.9443C93.2012 70.7554 94.2038 74.0605 94.2038 77.4414C94.1986 81.9735 92.396 86.3186 89.1913 89.5233C85.9866 92.728 81.6415 94.5307 77.1094 94.5358Z" fill="#004BB0"/>
<path d="M83.1189 71.6179H82.0783C81.8666 71.0077 81.5695 70.4305 81.1961 69.9035H83.1189C83.5029 69.9035 83.8712 69.751 84.1427 69.4795C84.4143 69.2079 84.5668 68.8396 84.5668 68.4556C84.5668 68.0716 84.4143 67.7033 84.1427 67.4318C83.8712 67.1603 83.5029 67.0077 83.1189 67.0077H75.7587C75.7056 67.0077 75.6544 67 75.6004 67H71.7711C71.3871 67 71.0189 67.1525 70.7473 67.4241C70.4758 67.6956 70.3232 68.0639 70.3232 68.4479C70.3232 68.8319 70.4758 69.2002 70.7473 69.4717C71.0189 69.7433 71.3871 69.8958 71.7711 69.8958H75.6004C76.2437 69.8959 76.8772 70.0527 77.4462 70.3528C78.0152 70.6528 78.5025 71.0871 78.8659 71.6179H71.831C71.447 71.6179 71.0787 71.7704 70.8072 72.042C70.5356 72.3135 70.3831 72.6818 70.3831 73.0658C70.3831 73.4498 70.5356 73.8181 70.8072 74.0896C71.0787 74.3611 71.447 74.5137 71.831 74.5137H79.5001C79.3465 75.4377 78.8706 76.2775 78.1567 76.884C77.4428 77.4904 76.5371 77.8244 75.6004 77.8265H71.7711C71.4881 77.8266 71.2113 77.9097 70.975 78.0654C70.7386 78.2212 70.5531 78.4427 70.4414 78.7028C70.3297 78.9628 70.2966 79.2499 70.3463 79.5286C70.3959 79.8072 70.5262 80.0652 70.7209 80.2706L78.5493 88.5237C78.6788 88.6668 78.8356 88.7825 79.0105 88.8641C79.1854 88.9458 79.3748 88.9916 79.5677 88.9989C79.7605 89.0063 79.9529 88.975 80.1335 88.907C80.3141 88.8389 80.4792 88.7354 80.6193 88.6026C80.7593 88.4698 80.8713 88.3103 80.9488 88.1336C81.0264 87.9568 81.0677 87.7664 81.0706 87.5734C81.0734 87.3804 81.0377 87.1888 80.9654 87.0099C80.8931 86.8309 80.7858 86.6682 80.6497 86.5313L75.1399 80.7223H75.6004C77.3064 80.7202 78.9506 80.0833 80.213 78.9357C81.4753 77.7881 82.2655 76.2118 82.4297 74.5137H83.1189C83.5029 74.5137 83.8712 74.3611 84.1427 74.0896C84.4143 73.8181 84.5668 73.4498 84.5668 73.0658C84.5668 72.6818 84.4143 72.3135 84.1427 72.042C83.8712 71.7704 83.5029 71.6179 83.1189 71.6179Z" fill="#004BB0"/>
</g>
</g>
</g>
<defs>
<clipPath id="clip0_5113_481">
<rect width="155" height="155" fill="white"/>
</clipPath>
</defs>
</svg>
