<svg width="30" height="31" viewBox="0 0 30 31" fill="none" xmlns="http://www.w3.org/2000/svg">
<mask id="mask0_3652_2" style="mask-type:luminance" maskUnits="userSpaceOnUse" x="0" y="0" width="30" height="31">
<path d="M30 0.466797H0V30.4668H30V0.466797Z" fill="white"/>
</mask>
<g mask="url(#mask0_3652_2)">
<path d="M14.9997 29.3736C22.4997 29.3736 27.8569 26.7165 27.8569 20.8022C27.8569 14.3736 24.6426 10.0879 18.214 6.87363L20.7426 3.61649C20.871 3.40278 20.9407 3.15892 20.9445 2.9096C20.9484 2.66029 20.8862 2.41439 20.7644 2.19684C20.6426 1.97929 20.4654 1.79781 20.2508 1.6708C20.0362 1.5438 19.7919 1.47578 19.5426 1.47363H10.4569C10.2075 1.47578 9.9632 1.5438 9.74862 1.6708C9.53405 1.79781 9.35687 1.97929 9.23504 2.19684C9.11321 2.41439 9.05106 2.66029 9.0549 2.9096C9.05873 3.15892 9.12841 3.40278 9.25686 3.61649L11.7854 6.89506C5.35686 10.1308 2.14258 14.4165 2.14258 20.8451C2.14258 26.7165 7.49972 29.3736 14.9997 29.3736Z" stroke="white" stroke-linecap="round" stroke-linejoin="round"/>
</g>
<path d="M18.9835 14.099H18.2529C18.1042 13.8217 17.8957 13.5593 17.6335 13.3198H18.9835C19.2531 13.3198 19.5116 13.2505 19.7023 13.127C19.8929 13.0036 20 12.8362 20 12.6617C20 12.4871 19.8929 12.3197 19.7023 12.1963C19.5116 12.0728 19.2531 12.0035 18.9835 12.0035H13.8161C13.7788 12.0035 13.7429 12 13.7049 12H11.0165C10.7469 12 10.4884 12.0693 10.2977 12.1928C10.1071 12.3162 10 12.4836 10 12.6581C10 12.8327 10.1071 13.0001 10.2977 13.1235C10.4884 13.2469 10.7469 13.3163 11.0165 13.3163H13.7049C14.1566 13.3163 14.6014 13.3876 15.0009 13.524C15.4003 13.6604 15.7424 13.8578 15.9976 14.099H11.0586C10.789 14.099 10.5304 14.1684 10.3398 14.2918C10.1491 14.4152 10.042 14.5826 10.042 14.7572C10.042 14.9317 10.1491 15.0991 10.3398 15.2225C10.5304 15.346 10.789 15.4153 11.0586 15.4153H16.4428C16.335 15.8353 16.0008 16.217 15.4996 16.4927C14.9984 16.7684 14.3626 16.9202 13.7049 16.9211H11.0165C10.8178 16.9212 10.6235 16.9589 10.4576 17.0297C10.2916 17.1005 10.1614 17.2012 10.083 17.3195C10.0045 17.4377 9.98129 17.5681 10.0162 17.6948C10.051 17.8215 10.1425 17.9387 10.2792 18.0321L15.7753 21.7835C15.8662 21.8485 15.9763 21.9011 16.0991 21.9382C16.2218 21.9753 16.3548 21.9962 16.4902 21.9995C16.6256 22.0029 16.7607 21.9886 16.8875 21.9577C17.0143 21.9268 17.1302 21.8797 17.2285 21.8194C17.3268 21.759 17.4055 21.6865 17.4599 21.6062C17.5143 21.5258 17.5434 21.4393 17.5454 21.3515C17.5474 21.2638 17.5223 21.1767 17.4715 21.0954C17.4208 21.0141 17.3455 20.9401 17.2499 20.8779L13.3817 18.2374H13.7049C14.9027 18.2364 16.057 17.947 16.9433 17.4253C17.8296 16.9037 18.3843 16.1872 18.4996 15.4153H18.9835C19.2531 15.4153 19.5116 15.346 19.7023 15.2225C19.8929 15.0991 20 14.9317 20 14.7572C20 14.5826 19.8929 14.4152 19.7023 14.2918C19.5116 14.1684 19.2531 14.099 18.9835 14.099Z" fill="white"/>
</svg>
